<?xml version="1.0" encoding="utf-8"?>
<!-- Generator: Adobe Illustrator 22.1.0, SVG Export Plug-In . SVG Version: 6.00 Build 0)  -->
<svg version="1.1" id="Layer_1" xmlns="http://www.w3.org/2000/svg" xmlns:xlink="http://www.w3.org/1999/xlink" x="0px" y="0px"
	 viewBox="0 0 841.9 595.3" style="enable-background:new 0 0 841.9 595.3;" xml:space="preserve">
<style type="text/css">
	.st0{fill:#FF0135;}
	.st1{fill:#FFFFFF;}
	.st2{fill:#050845;}
	.st3{font-family:'Algerian';}
	.st4{font-size:61.611px;}
	.st5{fill:none;}
</style>
<g>
	<path class="st0" d="M479,234c3.6-2.6,7.2-5.2,10.8-7.8c37.4,39.9,44,113.1-4.6,163.7c-45.5,47.4-123.5,48.1-171.4,1.4
		c-47.8-46.5-48-124.8-0.3-171.8c48-47.3,120.9-44.8,164.7-5.2c-6,6.4-12,12.9-18,19.3c-8.2-4.7-15.6-9.7-23.6-13.4
		c-61.6-28.2-133.4,19.6-131,87.2c1.7,47.5,38.4,86.7,84.8,90.3c48.3,3.8,91-28.3,100-75.7c4.9-26-1.2-49.9-16.2-71.6
		c-1.6-2.4-2.7-5.2-4-7.8C473.1,239.9,476.1,237,479,234z"/>
	<path class="st0" d="M440.1,271.4c2.2,1.1,5.4,1.5,6.5,3.3c22.7,34.8,0.7,81.1-40.4,86.5c-34.3,4.5-60.5-20.6-63.7-49.5
		c-3.6-33.3,20.6-62.1,55.7-63.3c11.4-0.4,24.4,3.9,34.8,11.9c-13.2,11.4-26,22.9-39.4,33.6c-5.2,4.2-8.4,9.6-6.2,15.6
		c2,5.4,7.8,8.8,13.5,7.8c6.2-1.1,10.4-6.5,10.1-13.3c-0.1-1.6-0.1-3.2-0.1-4.8C420.6,290,430.4,280.7,440.1,271.4z"/>
	<path class="st0" d="M440.1,271.4c-9.7,9.3-19.5,18.6-29.2,27.8c-2.7,2.3-5.1,4.8-8.1,6.7c-1.6,1-3.9,0.8-5.8,1.1
		c-0.2-0.7-0.4-1.4-0.6-2.2c26.2-25,52.3-50,78.5-75c0.8-0.8,1.6-1.7,2.6-2.4c10.3-7,15.2-15.8,10.6-28.4c-1.9-5.2,0.5-9,5.8-11.6
		c0.9,1.4,1.9,2.8,3.1,4.7c0.5-1.1,0.9-1.6,0.9-2.1c-0.2-8.9,0-8.5,8.3-13.1c2.8-1.6,4-5.6,6.3-8.2c2-2.3,4.4-4.2,7-6.6
		c1.4,2.5,2.7,4.7,4.5,7.9c1.7-6.2-3.9-13.7,5.9-16.7c1.1,6.2,2.2,12.5,3.3,18.8c3.2,1.1,6-7.6,9.5,0.1c-1.2,1.4-2.6,3-4.8,5.6
		c7.1,1.5,13.3,2.9,19.6,4.2c-4.6,11.7-13.7,9.3-23,8c3.1,1.9,6.3,3.7,10.5,6.2c-5.5,4.5-10.3,8.4-16.1,13c0.4,4.1-1.1,5-17.3,6.8
		c2.4,1.7,4.4,3.1,6.4,4.5c-0.1,0.6-0.2,1.3-0.3,1.9c-3.2-0.3-6.7,0.2-9.6-0.9c-10.2-3.9-18-1.3-24.4,7.2c-1.4,1.9-3.2,3.4-4.8,5.1
		c-2.9,2.9-5.9,5.8-8.8,8.8C460.2,252.3,450.1,261.9,440.1,271.4z"/>
</g>
<g>
	<rect x="249.5" y="271.6" class="st1" width="308.1" height="71"/>
	<text transform="matrix(1 0 0 1 256.2573 328.0977)" class="st2 st3 st4">GENOSIS X</text>
	<polygon class="st5" points="268.7,304.6 331.2,304.6 331.2,304.6 268.7,304.6 	"/>
	<rect x="279" y="276.8" class="st5" width="103.5" height="14.5"/>
</g>
</svg>
